<svg width="581" height="604" viewBox="0 0 581 604" fill="none" xmlns="http://www.w3.org/2000/svg">
<g clip-path="url(#clip0_59_897)">
<path d="M516.181 459.661L516.17 459.933L529.81 604H430.274L417.372 515.518L411.694 601.731L309.477 600.597L320.335 487.408L329.568 434.943V434.932L330.954 427.036H513.467L513.705 429.895L516.181 459.661Z" fill="#2F2E41"/>
<path d="M253.135 543.177C263.677 545.095 274.669 533.238 277.687 516.692C279.008 509.449 278.582 502.509 276.801 496.833L278.418 487.295L305.543 358.986C305.543 358.986 355.493 259.189 355.491 241.863C355.49 224.538 341.042 216.041 341.042 216.041L321.491 216.224L260.181 365.788L249.139 476.311L247.353 491.474C243.683 496.158 240.833 502.502 239.513 509.745C236.495 526.291 242.594 541.259 253.135 543.177Z" fill="#FFB6B6"/>
<path d="M452.013 154.217L433.841 112.245L374.783 122.455L370.808 171.836L452.013 154.217Z" fill="#FFB6B6"/>
<path opacity="0.1" d="M452.013 154.217L433.841 112.245L374.783 122.455L370.808 171.836L452.013 154.217Z" fill="black"/>
<path d="M580.35 241.565C580.35 241.565 538.328 163.293 530.378 155.352C526.839 151.817 521.275 151.768 516.189 152.798L457.691 132.664L437.863 121.537L436.557 142.707L371.461 154.377C371.823 141.466 373.646 136.556 373.646 136.556L349.796 164.427L303.231 187.115L303.256 187.319C299.839 188.51 296.599 190.549 294.145 193.921C285.059 206.399 260.073 358.406 260.073 358.406L313.452 369.75L320.717 324.217L325.946 365.213L329.921 441.783C329.921 441.783 402.608 504.174 437.816 481.487C473.023 458.799 516.181 459.933 516.181 459.933L517.258 424.441C518.025 423.217 518.453 422.499 518.453 422.499L517.317 296.6V263.1C525.969 275.139 536.41 285.494 548.55 290.343C588.301 306.225 580.35 241.565 580.35 241.565Z" fill="white"/>
<path d="M398.139 129.84C428.146 129.84 452.471 105.543 452.471 75.5724C452.471 45.6015 428.146 21.3053 398.139 21.3053C368.133 21.3053 343.808 45.6015 343.808 75.5724C343.808 105.543 368.133 129.84 398.139 129.84Z" fill="#FFB6B6"/>
<path d="M437.115 90.9088C437.115 90.9088 441.84 74.3927 452.47 75.5724C463.1 76.7522 465.462 67.3144 463.1 62.5955C460.738 57.8766 456.013 34.2822 456.013 34.2822C456.013 34.2822 458.376 17.7661 444.202 15.4067C430.029 13.0473 425.304 10.6878 422.942 5.96895C420.58 1.25007 385.146 -3.46881 373.335 3.60951C361.523 10.6878 352.074 24.2685 343.806 28.0957C335.538 31.9228 328.452 39.0011 333.176 50.7983C337.901 62.5955 344.753 85.6683 344.753 85.6683C344.753 85.6683 356.799 81.471 359.161 88.5493C361.523 95.6277 352.074 86.1899 363.886 67.3144C375.697 48.4389 375.697 29.5634 394.595 36.6417C413.493 43.72 434.753 41.3605 432.391 55.5172C430.029 69.6738 437.115 90.9088 437.115 90.9088Z" fill="#2F2E41"/>
<path d="M433.794 521.117H21.1624C9.49323 521.117 0 511.635 0 499.98V281.052C0 269.398 9.49323 259.915 21.1624 259.915H433.794C445.463 259.915 454.956 269.398 454.956 281.052V499.98C454.956 511.635 445.463 521.117 433.794 521.117Z" fill="white"/>
<path d="M433.794 521.117H21.1624C9.49323 521.117 0 511.635 0 499.98V281.052C0 269.398 9.49323 259.915 21.1624 259.915H433.794C445.463 259.915 454.956 269.398 454.956 281.052V499.98C454.956 511.635 445.463 521.117 433.794 521.117ZM21.1624 263.445C11.4423 263.445 3.53397 271.344 3.53397 281.052V499.98C3.53397 509.689 11.4423 517.588 21.1624 517.588H433.794C443.514 517.588 451.422 509.689 451.422 499.98V281.052C451.422 271.344 443.514 263.445 433.794 263.445H21.1624Z" fill="#3F3D56"/>
<path d="M401.946 286.388C404.874 286.388 407.247 284.018 407.247 281.094C407.247 278.169 404.874 275.799 401.946 275.799C399.019 275.799 396.646 278.169 396.646 281.094C396.646 284.018 399.019 286.388 401.946 286.388Z" fill="#3F3D56"/>
<path d="M416.082 286.388C419.01 286.388 421.383 284.018 421.383 281.094C421.383 278.169 419.01 275.799 416.082 275.799C413.154 275.799 410.781 278.169 410.781 281.094C410.781 284.018 413.154 286.388 416.082 286.388Z" fill="#3F3D56"/>
<path d="M430.219 286.388C433.147 286.388 435.52 284.018 435.52 281.094C435.52 278.169 433.147 275.799 430.219 275.799C427.291 275.799 424.918 278.169 424.918 281.094C424.918 284.018 427.291 286.388 430.219 286.388Z" fill="#3F3D56"/>
<path d="M30.0388 366.69C28.5772 366.69 27.3883 367.878 27.3883 369.338C27.3883 370.049 27.6635 370.708 28.1631 371.194C28.667 371.709 29.327 371.985 30.0388 371.985H426.684C428.146 371.985 429.335 370.797 429.335 369.338C429.335 368.626 429.06 367.967 428.56 367.481C428.056 366.966 427.396 366.69 426.684 366.69H30.0388Z" fill="white"/>
<path d="M377.209 365.808V372.867H30.0387C29.0669 372.867 28.1834 372.479 27.5473 371.826C26.8934 371.191 26.5048 370.308 26.5048 369.338C26.5048 367.396 28.0951 365.808 30.0387 365.808H377.209Z" fill="white"/>
<path d="M422.267 352.571H386.927C383.03 352.571 379.859 349.405 379.859 345.512C379.859 341.618 383.03 338.452 386.927 338.452H422.267C426.164 338.452 429.335 341.618 429.335 345.512C429.335 349.405 426.164 352.571 422.267 352.571Z" fill="white"/>
<path d="M190.792 315.509H32.6898C28.7926 315.509 25.6218 312.343 25.6218 308.449C25.6218 304.556 28.7926 301.39 32.6898 301.39H190.792C194.689 301.39 197.86 304.556 197.86 308.449C197.86 312.343 194.689 315.509 190.792 315.509Z" fill="white"/>
<path d="M30.0388 446.11C28.5772 446.11 27.3883 447.297 27.3883 448.757C27.3883 449.469 27.6635 450.127 28.1631 450.613C28.667 451.129 29.327 451.405 30.0388 451.405H426.684C428.146 451.405 429.335 450.217 429.335 448.757C429.335 448.045 429.06 447.387 428.56 446.901C428.056 446.386 427.396 446.11 426.684 446.11H30.0388Z" fill="white"/>
<path d="M241.151 445.227V452.287H30.0387C29.0669 452.287 28.1834 451.899 27.5473 451.246C26.8934 450.61 26.5048 449.728 26.5048 448.757C26.5048 446.816 28.0951 445.227 30.0387 445.227H241.151Z" fill="white"/>
<path d="M422.267 431.991H386.927C383.03 431.991 379.859 428.825 379.859 424.931C379.859 421.038 383.03 417.872 386.927 417.872H422.267C426.164 417.872 429.335 421.038 429.335 424.931C429.335 428.825 426.164 431.991 422.267 431.991Z" fill="white"/>
<path d="M484.135 134.017C514.698 134.017 539.475 109.791 539.475 79.9069C539.475 50.0229 514.698 25.7971 484.135 25.7971C453.571 25.7971 428.794 50.0229 428.794 79.9069C428.794 109.791 453.571 134.017 484.135 134.017Z" fill="white"/>
<path d="M502.917 52.6136C495.549 66.0131 488.182 79.4127 480.814 92.8122C476.118 84.5256 471.448 76.2243 466.741 67.9441C465.116 65.0845 460.694 67.6566 462.324 70.5234C467.78 80.1219 473.18 89.7524 478.637 99.351C479.57 100.992 482.131 101.03 483.055 99.351C491.148 84.6316 499.241 69.9121 507.334 55.1928C508.92 52.3085 504.504 49.7271 502.917 52.6136Z" fill="white"/>
<path d="M560.529 222.534L505.392 196.19C505.392 196.19 503.178 178.557 492.838 172.268C491.08 168.079 489.057 163.477 487.221 159.831C482.678 150.814 489.492 133.799 483.813 133.799C478.135 133.799 469.74 151.694 470.184 156.486C470.526 160.165 473.57 166.588 474.199 172.21C467.274 174.818 461.688 179.289 458.015 182.849C454.836 185.93 453.655 190.526 454.897 194.772C458.497 207.077 467.494 232.49 480.406 232.49C497.442 232.49 501.985 229.087 501.985 229.087C501.985 229.087 537.193 273.328 563.315 276.731C589.437 280.134 560.529 222.534 560.529 222.534Z" fill="#FFB6B6"/>
</g>
<defs>
<clipPath id="clip0_59_897">
<rect width="581" height="604" fill="white"/>
</clipPath>
</defs>
</svg>
